<?xml version="1.0" standalone="no"?>
<!DOCTYPE svg PUBLIC "-//W3C//DTD SVG 20010904//EN"
 "http://www.w3.org/TR/2001/REC-SVG-20010904/DTD/svg10.dtd">
<svg version="1.0" xmlns="http://www.w3.org/2000/svg"
 width="616.000000pt" height="462.000000pt" viewBox="0 0 616.000000 462.000000"
 preserveAspectRatio="xMidYMid meet">

<g transform="translate(0.000000,462.000000) scale(0.100000,-0.100000)"
fill="#000000" stroke="none">
<path d="M80 3539 c-48 -20 -52 -56 -14 -156 14 -37 34 -93 45 -123 11 -30 26
-68 33 -85 8 -16 35 -86 60 -155 25 -69 66 -179 91 -245 26 -66 75 -199 111
-295 35 -96 75 -204 89 -240 13 -36 40 -108 60 -160 20 -52 47 -124 60 -160
13 -36 40 -108 60 -160 20 -52 47 -124 60 -160 13 -36 40 -108 60 -160 20 -52
47 -124 60 -160 13 -36 40 -108 60 -160 19 -52 44 -117 54 -145 11 -27 41
-108 68 -179 26 -72 55 -139 65 -150 14 -18 32 -22 115 -27 163 -11 1204 -10
1244 1 19 6 45 20 57 33 18 19 292 596 429 905 26 56 51 101 57 99 15 -5 87
-156 221 -462 51 -117 90 -206 106 -240 10 -22 40 -94 68 -160 54 -132 75
-160 129 -175 56 -15 1426 -13 1472 3 53 18 22 -52 382 897 72 190 143 379
159 420 30 79 46 123 239 620 67 173 139 360 160 415 21 55 72 187 114 292 76
192 87 238 64 261 -9 9 -156 12 -601 12 -531 0 -592 -2 -617 -17 -28 -16 -65
-86 -140 -263 -18 -41 -39 -88 -47 -105 -8 -16 -37 -84 -65 -150 -28 -66 -54
-124 -58 -130 -4 -5 -17 -35 -28 -65 -19 -52 -53 -129 -108 -247 -13 -28 -24
-55 -24 -58 0 -6 -21 -54 -76 -173 -19 -40 -34 -76 -34 -81 0 -20 -29 -18 -43
2 -7 12 -91 195 -185 407 -354 796 -375 842 -405 864 -28 21 -37 21 -635 24
-538 2 -612 1 -649 -13 -42 -16 -45 -21 -119 -173 -129 -265 -247 -507 -359
-737 -147 -303 -158 -325 -172 -325 -6 0 -24 33 -41 73 -88 217 -202 495 -327
794 -112 269 -146 340 -168 357 -28 21 -38 21 -570 23 -343 1 -551 -2 -567 -8z
m549 -94 c17 -8 36 -25 42 -37 21 -38 444 -1048 767 -1825 25 -62 50 -109 54
-105 4 4 94 196 201 427 107 231 231 499 277 595 293 622 408 869 420 898 24
61 28 62 318 62 331 0 317 5 379 -128 82 -177 546 -1225 783 -1767 65 -148
169 -387 233 -530 132 -299 132 -299 115 -313 -19 -15 -636 -20 -664 -4 -23
12 -59 90 -323 702 -77 179 -161 372 -186 430 -26 58 -110 251 -187 430 -77
179 -144 329 -149 334 -17 18 -37 -16 -48 -82 -14 -81 -45 -180 -78 -245 -26
-53 -24 -67 13 -67 30 0 30 -13 -1 -84 l-25 -56 -74 0 c-41 0 -78 -5 -81 -10
-14 -22 17 -39 75 -42 l58 -3 -31 -68 -31 -69 -65 2 c-88 4 -91 3 -91 -20 0
-16 7 -20 33 -21 36 -1 90 -9 95 -14 2 -1 -10 -31 -25 -65 l-28 -62 -80 -2
c-73 -1 -80 -3 -80 -21 0 -18 8 -20 68 -23 37 -2 67 -5 67 -7 0 -2 -13 -33
-30 -69 l-29 -66 -73 6 c-60 5 -76 4 -87 -9 -18 -22 -5 -37 32 -37 18 0 48 -3
68 -6 l36 -6 -19 -39 c-10 -22 -23 -50 -28 -64 -9 -23 -15 -24 -92 -27 -75 -3
-83 -5 -83 -23 0 -18 8 -20 68 -23 37 -2 67 -5 67 -7 0 -3 -12 -33 -26 -68
l-26 -63 -83 4 c-84 4 -101 -2 -89 -32 5 -13 21 -16 75 -16 38 0 69 -2 69 -4
0 -3 -12 -32 -26 -65 l-27 -61 -76 0 c-81 0 -110 -12 -90 -37 7 -8 35 -13 75
-13 35 0 64 -3 63 -7 0 -5 -12 -33 -27 -63 l-27 -55 -82 -3 c-58 -2 -83 -7
-86 -17 -9 -23 15 -34 83 -37 l65 -3 -35 -22 c-35 -23 -39 -23 -392 -23 -330
0 -359 1 -376 18 -10 10 -40 78 -66 152 -41 113 -81 216 -102 265 -3 6 12 9
39 7 55 -5 187 14 200 27 8 8 7 15 -1 23 -12 12 -54 8 -212 -18 l-35 -6 -71
189 c-40 103 -75 195 -78 204 -6 14 7 17 91 23 121 8 143 13 143 36 0 27 -15
28 -129 8 -58 -10 -109 -17 -116 -15 -6 3 -26 45 -45 93 -19 49 -36 91 -37 94
-2 3 44 6 101 7 105 1 146 12 146 38 0 21 -17 22 -119 3 -146 -26 -133 -32
-173 76 l-35 94 108 7 c106 6 149 21 135 43 -10 17 -54 15 -157 -8 -51 -12
-93 -19 -94 -18 -3 3 -75 180 -75 184 0 1 49 7 110 14 115 13 155 29 133 51
-10 10 -36 8 -130 -9 -65 -12 -120 -18 -124 -14 -3 4 -18 39 -32 77 -14 39
-28 77 -32 86 -5 13 11 18 110 29 115 13 151 28 127 52 -8 8 -45 4 -132 -11
-67 -12 -123 -21 -124 -19 -1 2 -18 45 -38 96 l-36 92 39 0 c58 0 192 21 207
33 11 8 10 13 -1 24 -12 12 -27 12 -103 -2 -49 -9 -103 -18 -120 -22 -31 -5
-31 -5 -66 88 l-36 94 115 12 c123 14 155 26 130 50 -11 11 -30 10 -121 -7
-59 -12 -115 -20 -123 -18 -13 3 -83 155 -83 180 0 4 14 8 31 8 72 0 211 24
216 38 12 29 -14 32 -126 11 -62 -11 -119 -18 -125 -16 -12 5 -107 234 -122
291 l-6 26 173 3 c226 5 292 1 328 -18z m4766 15 c23 -9 26 -14 20 -38 -5 -21
-405 -910 -521 -1158 -14 -31 -34 -55 -49 -62 -17 -8 -87 -12 -191 -12 l-164
0 -20 -42 c-35 -76 -205 -458 -291 -653 -81 -186 -83 -189 -95 -160 -25 57
-45 1 266 740 95 226 207 493 250 595 225 537 323 756 343 772 12 9 42 19 67
21 103 8 361 6 385 -3z m-1764 -10 c11 -6 19 -21 19 -35 0 -14 -8 -29 -19 -35
-12 -6 -101 -10 -220 -10 l-201 0 -40 36 c-22 20 -40 40 -40 45 0 13 477 11
501 -1z m2379 -11 c0 -23 -18 -60 -34 -71 -6 -4 -95 -8 -198 -8 l-186 0 -26
-31 c-24 -28 -54 -87 -178 -347 -22 -46 -42 -82 -44 -79 -3 2 15 58 39 123 62
166 104 300 112 359 4 28 12 56 17 63 8 9 71 12 254 12 240 0 244 0 244 -21z"/>
<path d="M1033 1407 c-72 -13 -103 -23 -103 -33 0 -17 50 -18 155 -3 61 9 75
15 75 29 0 27 -17 28 -127 7z"/>
</g>
</svg>
